<?xml version="1.0" encoding="utf-8"?>
<!-- Generator: Adobe Illustrator 25.3.1, SVG Export Plug-In . SVG Version: 6.00 Build 0)  -->
<svg version="1.1" id="Layer_1" xmlns="http://www.w3.org/2000/svg" xmlns:xlink="http://www.w3.org/1999/xlink" x="0px" y="0px"
	 viewBox="0 0 40 55" style="enable-background:new 0 0 40 55;" xml:space="preserve">
<style type="text/css">
	.st0{fill:#F22C4D;}
	.st1{fill:#CE1130;}
	.st2{fill:#F28244;}
	.st3{fill:#D16642;}
	.st4{opacity:0.31;fill:#FFFFFF;}
	.st5{fill:#FFFFFF;}
</style>
<g>
	<polygon class="st0" points="31.8,30.2 31.8,53.5 20,46.7 8.2,53.5 8.2,30.2 	"/>
	<path class="st1" d="M31.8,30.2v8.2c-3.1,2.2-6.9,3.5-11,3.5c-4.8,0-9.3-1.8-12.6-4.8v-6.9H31.8z"/>
	<g>
		<path class="st2" d="M39,20.5c0,10.5-8.5,19-19,19c-5.8,0-10.9-2.6-14.4-6.6c-0.3-0.4-0.6-0.7-0.9-1.1C2.4,28.6,1,24.7,1,20.5
			c0-10.5,8.5-19,19-19c3.7,0,7.2,1.1,10.1,2.9c3,1.9,5.5,4.7,7.1,8C38.3,14.8,39,17.6,39,20.5z"/>
	</g>
	<g>
		<g>
			<path class="st3" d="M20,6.5c3.7,0,7.3,1.5,9.9,4.1c2.6,2.6,4.1,6.2,4.1,9.9s-1.5,7.3-4.1,9.9c-2.6,2.6-6.2,4.1-9.9,4.1
				s-7.3-1.5-9.9-4.1C7.4,27.8,6,24.2,6,20.5s1.5-7.3,4.1-9.9C12.7,7.9,16.3,6.5,20,6.5 M20,5C11.4,5,4.5,11.9,4.5,20.5
				S11.4,36,20,36s15.5-6.9,15.5-15.5S28.6,5,20,5L20,5z"/>
		</g>
	</g>
	<path class="st4" d="M30.1,4.4L5.6,32.9c-0.3-0.4-0.6-0.7-0.9-1.1C2.4,28.6,1,24.7,1,20.5c0-10.5,8.5-19,19-19
		C23.7,1.5,27.2,2.6,30.1,4.4z"/>
</g>
<g>
	<path class="st5" d="M24.3,19.2c0,0.8-0.6,1.4-1.3,1.5v0c0.8,0.1,1.3,0.7,1.3,1.5v3.9c0,2-1.1,3.1-3.1,3.1h-2.5c-1.9,0-3-1-3-3
		v-0.7c0-0.3,0.1-0.4,0.4-0.4h2c0.3,0,0.4,0.1,0.4,0.4v0.9H21c0.3,0,0.4-0.1,0.4-0.4v-3c0-0.6-0.3-0.9-0.9-0.9h-2.5
		c-0.3,0-0.4-0.1-0.4-0.4v-2c0-0.3,0.1-0.4,0.4-0.4h2.5c0.6,0,0.9-0.3,0.9-0.8v-3c0-0.3-0.1-0.4-0.4-0.4h-2.4v0.9
		c0,0.3-0.1,0.4-0.4,0.4h-2c-0.3,0-0.4-0.1-0.4-0.4V15c0-1.8,1-2.8,3-2.8h2.5c2,0,3.1,1.1,3.1,3.1V19.2z"/>
</g>
</svg>
