<svg width="40" height="40" viewBox="0 0 40 40" fill="none" xmlns="http://www.w3.org/2000/svg">
<rect x="15.9265" y="10.0464" width="13.5729" height="19.9069" rx="2.5" fill="#F88D53"/>
<rect x="14.2983" y="10.0464" width="13.5729" height="19.9069" rx="2.5" fill="#FFB161"/>
<path d="M16.5605 19.9998H25.6091" stroke="#F88D53" stroke-width="0.8"/>
<circle cx="18.5799" cy="16.9549" r="0.90486" fill="white"/>
<circle cx="21.0567" cy="15.1453" r="0.90486" fill="white"/>
<circle cx="23.5897" cy="13.3355" r="0.90486" fill="white"/>
<circle cx="19.4844" cy="26.3136" r="0.90486" fill="white"/>
<circle cx="22.6846" cy="23.7996" r="0.90486" fill="white"/>
<mask id="mask0_39_328" style="mask-type:alpha" maskUnits="userSpaceOnUse" x="9" y="21" width="9" height="9">
<path d="M16.4707 29.9534H10.4589C9.64236 29.9534 9.16725 29.0252 9.60841 28.338C10.7625 26.5406 11.9525 24.2247 12.2695 21.678H14.3944C14.6108 24.1314 16.082 26.6018 17.2908 28.2861C17.7825 28.9713 17.314 29.9534 16.4707 29.9534Z" fill="#2195FB"/>
</mask>
<g mask="url(#mask0_39_328)">
<path d="M18.5795 29.9534H8.49902C9.87121 28.0603 11.8467 25.0744 12.2695 21.678H14.3944C14.7035 25.1811 17.5706 28.719 18.5795 29.9534Z" fill="url(#paint0_linear_39_328)"/>
<circle opacity="0.4" cx="13.3203" cy="20.8752" r="2.58979" fill="#5D31B9"/>
</g>
<circle cx="13.32" cy="19.8752" r="2.58979" fill="url(#paint1_linear_39_328)"/>
<defs>
<linearGradient id="paint0_linear_39_328" x1="13.5393" y1="21.678" x2="13.5393" y2="29.9534" gradientUnits="userSpaceOnUse">
<stop stop-color="#8B5FE7"/>
<stop offset="1" stop-color="#B38FFF"/>
</linearGradient>
<linearGradient id="paint1_linear_39_328" x1="13.32" y1="17.2854" x2="13.32" y2="22.465" gradientUnits="userSpaceOnUse">
<stop stop-color="#8B5FE7"/>
<stop offset="1" stop-color="#B38FFF"/>
</linearGradient>
</defs>
</svg>
