<svg width="40" height="40" viewBox="0 0 40 40" fill="none" xmlns="http://www.w3.org/2000/svg">
<mask id="mask0_101_767" style="mask-type:alpha" maskUnits="userSpaceOnUse" x="11" y="15" width="14" height="13">
<circle cx="18.1281" cy="21.4662" r="6.43537" transform="rotate(30 18.1281 21.4662)" fill="#2095FB"/>
</mask>
<g mask="url(#mask0_101_767)">
<circle cx="18.1281" cy="21.4662" r="6.43537" transform="rotate(30 18.1281 21.4662)" fill="#107AD6"/>
<circle cx="17.973" cy="19.3637" r="6.8027" transform="rotate(30 17.973 19.3637)" fill="#2095FB"/>
</g>
<ellipse cx="16.7977" cy="17.7857" rx="1.5992" ry="1.88672" transform="rotate(57.1638 16.7977 17.7857)" fill="#67B8FF"/>
<ellipse cx="13.7271" cy="19.2982" rx="0.580333" ry="0.684672" transform="rotate(57.1638 13.7271 19.2982)" fill="#67B8FF"/>
<path d="M22.6803 13.9996L25.4506 9.20129" stroke="url(#paint0_linear_101_767)" stroke-width="1.72199"/>
<circle cx="18.1279" cy="21.6817" r="8.92885" transform="rotate(30 18.1279 21.6817)" stroke="url(#paint1_linear_101_767)" stroke-width="1.72199"/>
<path d="M26.3288 11.3527L23.1481 9.51637L25.7748 8.63952L26.3288 11.3527Z" stroke="url(#paint2_linear_101_767)" stroke-width="1.72199"/>
<defs>
<linearGradient id="paint0_linear_101_767" x1="25.8836" y1="9.45129" x2="23.1133" y2="14.2496" gradientUnits="userSpaceOnUse">
<stop stop-color="#ECA460"/>
<stop offset="1" stop-color="#FFC281"/>
</linearGradient>
<linearGradient id="paint1_linear_101_767" x1="18.1279" y1="12.7528" x2="18.1279" y2="30.6105" gradientUnits="userSpaceOnUse">
<stop stop-color="#ECA460"/>
<stop offset="1" stop-color="#FFC281"/>
</linearGradient>
<linearGradient id="paint2_linear_101_767" x1="26.424" y1="7.5151" x2="24.308" y2="11.1802" gradientUnits="userSpaceOnUse">
<stop stop-color="#ECA460"/>
<stop offset="1" stop-color="#FFC281"/>
</linearGradient>
</defs>
</svg>
