<?xml version="1.0" encoding="utf-8"?>
<!-- Generator: Adobe Illustrator 25.3.1, SVG Export Plug-In . SVG Version: 6.00 Build 0)  -->
<svg version="1.1" id="Layer_1" xmlns="http://www.w3.org/2000/svg" xmlns:xlink="http://www.w3.org/1999/xlink" x="0px" y="0px"
	 viewBox="0 0 40 40" style="enable-background:new 0 0 40 40;" xml:space="preserve">
<style type="text/css">
	.st0{fill:#FFFFFF;}
</style>
<g>
	<path class="st0" d="M20,13.5h9c0.8,0,1.5-0.7,1.5-1.5s-0.7-1.5-1.5-1.5h-9c-0.8,0-1.5,0.7-1.5,1.5S19.2,13.5,20,13.5z"/>
	<path class="st0" d="M29,18.5H11c-0.8,0-1.5,0.7-1.5,1.5s0.7,1.5,1.5,1.5h18c0.8,0,1.5-0.7,1.5-1.5S29.8,18.5,29,18.5z"/>
	<path class="st0" d="M20,26.5h-9c-0.8,0-1.5,0.7-1.5,1.5s0.7,1.5,1.5,1.5h9c0.8,0,1.5-0.7,1.5-1.5S20.8,26.5,20,26.5z"/>
</g>
</svg>
