<svg width="40" height="40" viewBox="0 0 40 40" fill="none" xmlns="http://www.w3.org/2000/svg">
<mask id="mask0_101_803" style="mask-type:alpha" maskUnits="userSpaceOnUse" x="7" y="10" width="19" height="22">
<rect x="7.27686" y="15.8577" width="12.3763" height="17.7469" rx="1.07265" transform="rotate(-25.5449 7.27686 15.8577)" fill="#C4C4C4"/>
</mask>
<g mask="url(#mask0_101_803)">
<rect x="7.27686" y="15.8577" width="12.3763" height="17.7469" rx="0.582493" transform="rotate(-25.5449 7.27686 15.8577)" fill="url(#paint0_linear_101_803)"/>
<path d="M3.57458 16.3206L20.469 19.4986L12.3305 34.6407" stroke="#0E82D5" stroke-width="1.07265" stroke-linecap="round" stroke-linejoin="round"/>
<path d="M-2.50146 12.7965L24.044 17.79L11.2563 41.5822" stroke="#0E82D5" stroke-width="1.07265" stroke-linecap="round" stroke-linejoin="round"/>
<path d="M6.40283 19.1216L17.0621 21.1268L11.9272 30.6804" stroke="#0E82D5" stroke-width="1.07265" stroke-linecap="round" stroke-linejoin="round"/>
<path d="M9.25806 21.9384L13.6395 22.7625L11.5288 26.6895" stroke="#0E82D5" stroke-width="1.07265" stroke-linecap="round" stroke-linejoin="round"/>
</g>
<rect x="15.9492" y="9.29236" width="12.3763" height="17.7469" rx="1.07265" fill="url(#paint1_linear_101_803)"/>
<path d="M24.0501 14.8719C23.2474 14.8719 22.5064 15.3659 22.1359 16.1069C21.8272 15.3659 21.0862 14.8719 20.2217 14.8719C19.0484 14.8719 18.1222 15.7982 18.1222 16.9714C18.1222 19.1327 22.1359 22.0349 22.1359 22.0349C22.1359 22.0349 26.1496 19.0709 26.1496 16.9714C26.2114 15.7982 25.2234 14.8719 24.0501 14.8719Z" fill="url(#paint2_linear_101_803)"/>
<path d="M18.609 10.5003C18.4087 10.5003 18.2238 10.6236 18.1314 10.8085C18.0543 10.6236 17.8694 10.5003 17.6537 10.5003C17.361 10.5003 17.1299 10.7314 17.1299 11.0242C17.1299 11.5634 18.1314 12.2876 18.1314 12.2876C18.1314 12.2876 19.1328 11.548 19.1328 11.0242C19.1482 10.7314 18.9017 10.5003 18.609 10.5003Z" fill="url(#paint3_linear_101_803)"/>
<path d="M25.6652 25.6521C25.8655 25.6521 26.0504 25.5288 26.1428 25.344C26.2198 25.5288 26.4047 25.6521 26.6204 25.6521C26.9132 25.6521 27.1443 25.421 27.1443 25.1283C27.1443 24.589 26.1428 23.8649 26.1428 23.8649C26.1428 23.8649 25.1413 24.6044 25.1413 25.1283C25.1259 25.421 25.3724 25.6521 25.6652 25.6521Z" fill="url(#paint4_linear_101_803)"/>
<defs>
<linearGradient id="paint0_linear_101_803" x1="13.465" y1="15.8577" x2="13.465" y2="33.6045" gradientUnits="userSpaceOnUse">
<stop stop-color="#1DA0F9"/>
<stop offset="1" stop-color="#228EFC"/>
</linearGradient>
<linearGradient id="paint1_linear_101_803" x1="22.1373" y1="9.29236" x2="22.1373" y2="27.0392" gradientUnits="userSpaceOnUse">
<stop stop-color="#E6ECFF"/>
<stop offset="1" stop-color="#D3DDFF"/>
</linearGradient>
<linearGradient id="paint2_linear_101_803" x1="22.1373" y1="14.8719" x2="22.1373" y2="22.0349" gradientUnits="userSpaceOnUse">
<stop stop-color="#F76378"/>
<stop offset="1" stop-color="#F5637D"/>
</linearGradient>
<linearGradient id="paint3_linear_101_803" x1="18.1317" y1="10.5003" x2="18.1317" y2="12.2876" gradientUnits="userSpaceOnUse">
<stop stop-color="#F76378"/>
<stop offset="1" stop-color="#F5637D"/>
</linearGradient>
<linearGradient id="paint4_linear_101_803" x1="26.1425" y1="25.6521" x2="26.1425" y2="23.8649" gradientUnits="userSpaceOnUse">
<stop stop-color="#F76378"/>
<stop offset="1" stop-color="#F5637D"/>
</linearGradient>
</defs>
</svg>
