<svg width="40" height="40" viewBox="0 0 40 40" fill="none" xmlns="http://www.w3.org/2000/svg">
<mask id="mask0_101_741" style="mask-type:alpha" maskUnits="userSpaceOnUse" x="10" y="9" width="20" height="22">
<path d="M10.3916 18.7187V29.8487C10.3916 30.2678 10.8766 30.5007 11.2038 30.2386L13.3062 28.5543C13.6669 28.2653 14.1832 28.2773 14.5302 28.5828L16.4514 30.2744C16.8396 30.6163 17.4297 30.5854 17.7802 30.2051L19.1297 28.7405C19.4809 28.3594 20.0725 28.3293 20.4605 28.6729L22.3192 30.3185C22.6853 30.6426 23.2373 30.6366 23.5962 30.3047L25.4315 28.6077C25.7759 28.2892 26.301 28.2692 26.6686 28.5604L28.7982 30.2474C29.1259 30.507 29.6085 30.2736 29.6085 29.8556V18.7187C29.6085 13.4121 25.3067 9.1102 20.0001 9.1102C14.6935 9.1102 10.3916 13.4121 10.3916 18.7187Z" fill="url(#paint0_linear_101_741)"/>
</mask>
<g mask="url(#mask0_101_741)">
<path d="M10.3916 18.7187V29.8487C10.3916 30.2678 10.8766 30.5007 11.2038 30.2386L13.3062 28.5543C13.6669 28.2653 14.1832 28.2773 14.5302 28.5828L16.4514 30.2744C16.8396 30.6163 17.4297 30.5854 17.7802 30.2051L19.1297 28.7405C19.4809 28.3594 20.0725 28.3293 20.4605 28.6729L22.3192 30.3185C22.6853 30.6426 23.2373 30.6366 23.5962 30.3047L25.4315 28.6077C25.7759 28.2892 26.301 28.2692 26.6686 28.5604L28.7982 30.2474C29.1259 30.507 29.6085 30.2736 29.6085 29.8556V18.7187C29.6085 13.4121 25.3067 9.1102 20.0001 9.1102C14.6935 9.1102 10.3916 13.4121 10.3916 18.7187Z" fill="#FF7B83"/>
<path d="M10.7375 20.9545L10.3523 32.151C10.3376 32.5789 10.8086 32.848 11.1697 32.618L14.2907 30.63C14.6415 30.4066 15.0967 30.4368 15.4149 30.7046L17.652 32.5878C18.0351 32.9103 18.6026 32.8807 18.9502 32.5201L20.5147 30.8969C20.863 30.5356 21.4318 30.5067 21.8148 30.8309L23.9392 32.6289C24.2999 32.9343 24.8302 32.9286 25.1843 32.6155L27.2714 30.7706C27.611 30.4704 28.115 30.4513 28.4763 30.7249L30.8698 32.5375C31.2078 32.7935 31.6927 32.5524 31.6927 32.1285V21.3149C31.6927 15.5266 27.0003 10.8342 21.212 10.8342C15.564 10.8342 10.9317 15.3098 10.7375 20.9545Z" fill="url(#paint1_linear_101_741)"/>
<path d="M13.0742 27.627L9.08911 29.3839V30.6101H30.1393V28.6686L26.8371 27.54C26.3648 27.3786 25.8493 27.3995 25.3917 27.5988L22.9352 28.6686L20.6795 27.6863C20.105 27.4361 19.4465 27.4696 18.9004 27.7768L17.315 28.6686L14.6191 27.5982C14.121 27.4004 13.5645 27.4108 13.0742 27.627Z" fill="#E24A60"/>
</g>
<circle cx="25.5231" cy="17.8179" r="2.69692" fill="white"/>
<circle cx="19.1897" cy="17.8179" r="2.69692" fill="white"/>
<circle cx="26.5253" cy="17.8178" r="1.19717" fill="url(#paint2_linear_101_741)"/>
<circle cx="20.1922" cy="17.8178" r="1.19717" fill="url(#paint3_linear_101_741)"/>
<defs>
<linearGradient id="paint0_linear_101_741" x1="20.0001" y1="9.1102" x2="20.0001" y2="30.8893" gradientUnits="userSpaceOnUse">
<stop stop-color="#FC6566"/>
<stop offset="1" stop-color="#F36283"/>
</linearGradient>
<linearGradient id="paint1_linear_101_741" x1="21.3892" y1="10.8342" x2="21.3892" y2="33.1607" gradientUnits="userSpaceOnUse">
<stop stop-color="#FC6566"/>
<stop offset="1" stop-color="#F36283"/>
</linearGradient>
<linearGradient id="paint2_linear_101_741" x1="26.5253" y1="16.6206" x2="26.5253" y2="19.015" gradientUnits="userSpaceOnUse">
<stop stop-color="#262653"/>
<stop offset="1" stop-color="#3E3E68"/>
</linearGradient>
<linearGradient id="paint3_linear_101_741" x1="20.1922" y1="16.6206" x2="20.1922" y2="19.015" gradientUnits="userSpaceOnUse">
<stop stop-color="#262653"/>
<stop offset="1" stop-color="#3E3E68"/>
</linearGradient>
</defs>
</svg>
