<svg width="16" height="16" viewBox="0 0 16 16" fill="none" xmlns="http://www.w3.org/2000/svg">
<path d="M6.42093 13.8603C8.86254 13.8603 10.8419 11.881 10.8419 9.43936C10.8419 6.99775 8.86254 5.01843 6.42093 5.01843C3.97932 5.01843 2 6.99775 2 9.43936C2 10.1878 2.18597 10.8928 2.51422 11.5106C2.59168 11.6564 2.62542 11.8227 2.59743 11.9854L2.36457 13.3392C2.27579 13.8554 2.77656 14.2756 3.26946 14.0985L4.55054 13.6384C4.7071 13.5821 4.87811 13.587 5.03611 13.6391C5.47171 13.7826 5.93725 13.8603 6.42093 13.8603Z" stroke="white" stroke-linejoin="round"/>
<circle cx="4.71124" cy="9.57904" r="0.512755" fill="white"/>
<circle cx="6.42023" cy="9.57904" r="0.512755" fill="white"/>
<circle cx="8.1297" cy="9.57904" r="0.512755" fill="white"/>
<path d="M11.8237 12.0082L12.7066 12.2943C13.1995 12.4714 13.7003 12.0511 13.6115 11.535L13.3109 9.78734C13.2829 9.6246 13.3164 9.45812 13.395 9.31287C13.7811 8.59895 14.0002 7.78155 14.0002 6.91296C14.0002 4.12255 11.7382 1.86047 8.94775 1.86047C7.43808 1.86047 6.08305 2.52259 5.15723 3.57227" stroke="white" stroke-linecap="round" stroke-linejoin="round"/>
</svg>
