<svg width="40" height="40" viewBox="0 0 40 40" fill="none" xmlns="http://www.w3.org/2000/svg">
<mask id="mask0_101_743" style="mask-type:alpha" maskUnits="userSpaceOnUse" x="8" y="8" width="24" height="14">
<path fill-rule="evenodd" clip-rule="evenodd" d="M15.2077 10.9326C16.1026 9.19125 17.917 8 20.0096 8C22.1002 8 23.9132 9.18907 24.809 10.9278C25.2837 10.7912 25.7852 10.7181 26.3038 10.7181C29.2837 10.7181 31.6994 13.1337 31.6994 16.1136C31.6994 18.6548 29.9427 20.7856 27.5775 21.358V21.5092H12.4411V21.3624C10.0666 20.7967 8.30078 18.6614 8.30078 16.1136C8.30078 13.1337 10.7165 10.7181 13.6964 10.7181C14.221 10.7181 14.7281 10.7929 15.2077 10.9326Z" fill="#C4C4C4"/>
</mask>
<g mask="url(#mask0_101_743)">
<path fill-rule="evenodd" clip-rule="evenodd" d="M15.2077 10.9326C16.1026 9.19125 17.917 8 20.0096 8C22.1002 8 23.9132 9.18907 24.809 10.9278C25.2837 10.7912 25.7852 10.7181 26.3038 10.7181C29.2837 10.7181 31.6994 13.1337 31.6994 16.1136C31.6994 18.6548 29.9427 20.7856 27.5775 21.358V21.5092H12.4411V21.3624C10.0666 20.7967 8.30078 18.6614 8.30078 16.1136C8.30078 13.1337 10.7165 10.7181 13.6964 10.7181C14.221 10.7181 14.7281 10.7929 15.2077 10.9326Z" fill="#ADBDEC"/>
<path d="M20.0096 5.69824C17.917 5.69824 16.1026 6.88949 15.2077 8.63083C14.7281 8.49118 14.221 8.41631 13.6964 8.41631C10.7165 8.41631 8.30078 10.832 8.30078 13.8119C8.30078 16.3596 10.0666 18.4949 12.4411 19.0607L27.5775 19.0562C29.9427 18.4838 31.6994 16.353 31.6994 13.8119C31.6994 10.832 29.2837 8.41631 26.3038 8.41631C25.7852 8.41631 25.2837 8.48948 24.809 8.62606C23.9132 6.88731 22.1002 5.69824 20.0096 5.69824Z" fill="url(#paint0_linear_101_743)"/>
</g>
<path d="M12.4414 21.3605H27.5776V28C27.5776 29.1046 26.6822 30 25.5776 30H14.4414C13.3368 30 12.4414 29.1046 12.4414 28V21.3605Z" fill="url(#paint1_linear_101_743)"/>
<rect x="12.4414" y="25.0234" width="15.1362" height="1.9906" fill="url(#paint2_linear_101_743)"/>
<defs>
<linearGradient id="paint0_linear_101_743" x1="20.0001" y1="5.69824" x2="20.0001" y2="19.0607" gradientUnits="userSpaceOnUse">
<stop stop-color="#D3DEFD"/>
<stop offset="1" stop-color="#D3DDFF"/>
</linearGradient>
<linearGradient id="paint1_linear_101_743" x1="20.0095" y1="21.3605" x2="20.0095" y2="30" gradientUnits="userSpaceOnUse">
<stop stop-color="#A4B0DD"/>
<stop offset="0.567708" stop-color="#8F9ED4"/>
</linearGradient>
<linearGradient id="paint2_linear_101_743" x1="20.0095" y1="25.0234" x2="20.0095" y2="27.014" gradientUnits="userSpaceOnUse">
<stop stop-color="#1DA0F9"/>
<stop offset="1" stop-color="#228EFC"/>
</linearGradient>
</defs>
</svg>
