<svg width="40" height="40" viewBox="0 0 40 40" fill="none" xmlns="http://www.w3.org/2000/svg">
<mask id="mask0_101_854" style="mask-type:alpha" maskUnits="userSpaceOnUse" x="8" y="12" width="24" height="19">
<path d="M21.0218 13.9534L20.1064 14.9996L19.191 14.0842C17.2294 12.1226 14.0908 11.5995 11.6062 13.1688C8.33685 15.3919 7.94454 19.8382 10.56 22.5844L11.4754 23.4998L18.1262 30.1506C19.1476 31.172 20.8036 31.172 21.825 30.1506L28.4758 23.4998L29.3912 22.5844C31.7451 20.2305 31.7451 16.4381 29.3912 14.0842C27.1681 11.7303 23.3757 11.7303 21.0218 13.9534Z" fill="#FF6D81"/>
</mask>
<g mask="url(#mask0_101_854)">
<path d="M21.0218 13.9534L20.1064 14.9996L19.191 14.0842C17.2294 12.1226 14.0908 11.5995 11.6062 13.1688C8.33685 15.3919 7.94454 19.8382 10.56 22.5844L11.4754 23.4998L18.1262 30.1506C19.1476 31.172 20.8036 31.172 21.825 30.1506L28.4758 23.4998L29.3912 22.5844C31.7451 20.2305 31.7451 16.4381 29.3912 14.0842C27.1681 11.7303 23.3757 11.7303 21.0218 13.9534Z" fill="#EB5360"/>
<path d="M22.2193 12.3203L21.3039 13.3664L20.3885 12.451C18.4269 10.4894 15.2884 9.96636 12.8037 11.5356C9.53439 13.7588 9.14208 18.205 11.7575 20.9512L12.6729 21.8666L19.3237 28.5174C20.3451 29.5388 22.0011 29.5388 23.0225 28.5174L29.6733 21.8666L30.5887 20.9512C32.9426 18.5973 32.9426 14.8049 30.5887 12.451C28.3656 10.0971 24.5732 10.0971 22.2193 12.3203Z" fill="url(#paint0_linear_101_854)"/>
<ellipse opacity="0.25" cx="28.0601" cy="17.0679" rx="1.6966" ry="2.28675" transform="rotate(-20.2981 28.0601 17.0679)" fill="white"/>
</g>
<defs>
<linearGradient id="paint0_linear_101_854" x1="21.1975" y1="10.615" x2="21.1975" y2="30.3668" gradientUnits="userSpaceOnUse">
<stop stop-color="#FE6366"/>
<stop offset="1" stop-color="#FF6E85"/>
</linearGradient>
</defs>
</svg>
