<?xml version="1.0" encoding="utf-8"?>
<!-- Generator: Adobe Illustrator 25.3.1, SVG Export Plug-In . SVG Version: 6.00 Build 0)  -->
<svg version="1.1" id="Layer_1" xmlns="http://www.w3.org/2000/svg" xmlns:xlink="http://www.w3.org/1999/xlink" x="0px" y="0px"
	 viewBox="0 0 40 40" style="enable-background:new 0 0 40 40;" xml:space="preserve">
<style type="text/css">
	.st0{fill:url(#SVGID_1_);}
	.st1{fill:none;stroke:#FFFFFF;stroke-width:1.2;stroke-linecap:round;stroke-linejoin:round;}
	
		.st2{opacity:0.6;fill:none;stroke:#FFFFFF;stroke-width:1.2;stroke-linecap:round;stroke-linejoin:round;enable-background:new    ;}
	.st3{opacity:0.5;fill:#FFFFFF;enable-background:new    ;}
	.st4{fill:#FFFFFF;}
</style>
<g>
	
		<linearGradient id="SVGID_1_" gradientUnits="userSpaceOnUse" x1="19.9422" y1="33.8552" x2="19.9422" y2="11.8552" gradientTransform="matrix(1 0 0 -1 0 42)">
		<stop  offset="0" style="stop-color:#1DA0F9"/>
		<stop  offset="1" style="stop-color:#59BCFF"/>
	</linearGradient>
	<path class="st0" d="M13.9,8.1h12c2.2,0,4,1.8,4,4v14c0,2.2-1.8,4-4,4h-12c-2.2,0-4-1.8-4-4v-14C9.9,9.9,11.7,8.1,13.9,8.1z"/>
	<path class="st1" d="M12.9,22.9h4"/>
	<path class="st1" d="M24.9,22.9h2"/>
	<path class="st2" d="M12.9,25.9h7"/>
	<path class="st3" d="M11.9,12.1c0-1.1,0.9-2,2-2h12c1.1,0,2,0.9,2,2v6c0,1.1-0.9,2-2,2h-12c-1.1,0-2-0.9-2-2V12.1z"/>
	<circle class="st4" cx="15.9" cy="15.1" r="1"/>
	<circle class="st4" cx="19.9" cy="15.1" r="1"/>
	<circle class="st4" cx="23.9" cy="15.1" r="1"/>
</g>
</svg>
