<svg width="40" height="40" viewBox="0 0 40 40" fill="none" xmlns="http://www.w3.org/2000/svg">
<circle cx="19.3055" cy="22.1435" r="10.2015" fill="#1678BA"/>
<path fill-rule="evenodd" clip-rule="evenodd" d="M21.5627 8.81055V12.8434H19.5627V8.81055H21.5627Z" fill="#0974BD"/>
<path d="M26.3772 15.9277L28.448 13.3249" stroke="#0974BD" stroke-width="1.43312" stroke-linecap="round"/>
<path d="M13.4479 15.9276L11.3771 13.3249" stroke="#0974BD" stroke-width="1.43312" stroke-linecap="round"/>
<circle cx="20.6946" cy="22.1435" r="10.2015" fill="url(#paint0_linear_101_791)"/>
<mask id="mask0_101_791" style="mask-type:alpha" maskUnits="userSpaceOnUse" x="12" y="13" width="17" height="18">
<circle cx="20.6945" cy="22.1434" r="8.29074" fill="#1B85CC"/>
</mask>
<g mask="url(#mask0_101_791)">
<circle cx="20.6945" cy="22.1434" r="8.29074" fill="#1781C9"/>
<circle cx="19.8425" cy="22.1434" r="8.29074" fill="url(#paint1_linear_101_791)"/>
</g>
<path d="M20.5407 24.3477C20.3736 24.3477 20.2359 24.2888 20.1278 24.1708C20.0295 24.0528 19.9804 23.8906 19.9804 23.6842C19.9804 23.1436 20.0787 22.6865 20.2753 22.313C20.4719 21.9394 20.7569 21.5315 21.1305 21.0891C21.4254 20.7353 21.6416 20.4404 21.7792 20.2045C21.9168 19.9685 21.9857 19.7031 21.9857 19.4082C21.9857 19.0839 21.8628 18.8283 21.617 18.6415C21.3811 18.4449 21.0567 18.3466 20.6439 18.3466C20.29 18.3466 19.9509 18.4253 19.6265 18.5825C19.3021 18.73 18.9237 18.9462 18.4911 19.2313C18.2454 19.3689 18.0439 19.4377 17.8866 19.4377C17.7195 19.4377 17.5721 19.364 17.4443 19.2166C17.3263 19.0593 17.2673 18.8774 17.2673 18.671C17.2673 18.3859 17.3853 18.1549 17.6212 17.978C18.0341 17.6241 18.5206 17.3489 19.0809 17.1523C19.6412 16.9459 20.2065 16.8427 20.7766 16.8427C21.3762 16.8427 21.907 16.9459 22.369 17.1523C22.8409 17.3587 23.2046 17.6438 23.4601 18.0075C23.7255 18.3712 23.8582 18.789 23.8582 19.2608C23.8582 19.7719 23.7354 20.2192 23.4896 20.6026C23.2439 20.9761 22.8851 21.3988 22.4133 21.8706C22.0102 22.2835 21.7055 22.6324 21.4991 22.9175C21.3025 23.1927 21.1796 23.5073 21.1305 23.8612C21.101 24.0184 21.0322 24.1413 20.924 24.2298C20.8257 24.3084 20.6979 24.3477 20.5407 24.3477ZM20.5702 27.4441C20.2556 27.4441 19.9951 27.3409 19.7887 27.1345C19.5823 26.9182 19.479 26.6528 19.479 26.3383C19.479 26.0237 19.5823 25.7632 19.7887 25.5568C19.9951 25.3405 20.2556 25.2324 20.5702 25.2324C20.8847 25.2324 21.1452 25.3405 21.3516 25.5568C21.5581 25.7632 21.6613 26.0237 21.6613 26.3383C21.6613 26.6528 21.5531 26.9182 21.3369 27.1345C21.1305 27.3409 20.8749 27.4441 20.5702 27.4441Z" fill="url(#paint2_linear_101_791)"/>
<rect x="18.271" y="7.65515" width="4.5834" height="2.9984" rx="0.477707" fill="#22A2FA"/>
<rect x="21.5403" y="7.65515" width="1.31403" height="2.9984" rx="0.477707" fill="#5ABCFF"/>
<defs>
<linearGradient id="paint0_linear_101_791" x1="20.6946" y1="11.942" x2="20.6946" y2="32.3449" gradientUnits="userSpaceOnUse">
<stop stop-color="#1DA0F9"/>
<stop offset="1" stop-color="#59BCFF"/>
</linearGradient>
<linearGradient id="paint1_linear_101_791" x1="19.8425" y1="13.8527" x2="19.8425" y2="30.4341" gradientUnits="userSpaceOnUse">
<stop stop-color="#D3DEFD"/>
<stop offset="1" stop-color="#D3DDFF"/>
</linearGradient>
<linearGradient id="paint2_linear_101_791" x1="20.5628" y1="16.8427" x2="20.5628" y2="27.4441" gradientUnits="userSpaceOnUse">
<stop stop-color="#262653"/>
<stop offset="1" stop-color="#3E3E68"/>
</linearGradient>
</defs>
</svg>
