<svg width="40" height="40" viewBox="0 0 40 40" fill="none" xmlns="http://www.w3.org/2000/svg">
<path d="M9.84827 11.9272C9.84821 10.8225 10.7437 9.9292 11.8483 9.9292H27.8481C28.9527 9.9292 29.8481 10.8224 29.8481 11.927C29.8481 14.737 29.8481 20.059 29.8481 24.9292C29.8481 28.8437 23.5646 32.2074 20.9593 33.4339C20.2509 33.7674 19.4457 33.7667 18.7377 33.4323C16.1327 32.202 9.8478 28.8294 9.84814 24.9292C9.84857 20.0591 9.84841 14.7372 9.84827 11.9272Z" fill="#2195FB"/>
<path d="M12.0742 12.6006H27.6218C27.6218 12.6006 27.6218 18.7967 27.6218 24.2612C27.6218 28.1001 19.848 31.2576 19.848 31.2576C19.848 31.2576 12.0739 28.0857 12.0742 24.2612C12.0747 18.7967 12.0742 12.6006 12.0742 12.6006Z" fill="#006FD4"/>
<mask id="mask0_39_296" style="mask-type:alpha" maskUnits="userSpaceOnUse" x="9" y="10" width="18" height="17">
<path d="M10.1742 10.0413C9.83177 10.0341 9.55804 10.3243 9.58523 10.6657L9.98673 15.7075C10.0389 16.3622 10.3667 16.9639 10.8885 17.3628L22.9633 26.5916L24.9088 24.5289L26.8543 22.4662L16.9359 10.9511C16.5073 10.4535 15.8875 10.1614 15.2308 10.1476L10.1742 10.0413Z" fill="url(#paint0_linear_39_296)"/>
</mask>
<g mask="url(#mask0_39_296)">
<path d="M10.1742 10.0413C9.83177 10.0341 9.55804 10.3243 9.58523 10.6657L9.98673 15.7075C10.0389 16.3622 10.3667 16.9639 10.8885 17.3628L22.9633 26.5916L24.9088 24.5289L26.8543 22.4662L16.9359 10.9511C16.5073 10.4535 15.8875 10.1614 15.2308 10.1476L10.1742 10.0413Z" fill="url(#paint1_linear_39_296)"/>
<path opacity="0.5" d="M12.2353 17.3942L13.3673 5.65674L16.2166 9.55291L14.6377 19.0859L12.2353 17.3942Z" fill="#E7F0FF"/>
<path d="M8.94873 9.46216L26.2991 25.8715L24.0641 27.8124L9.30161 16.9317L8.94873 9.46216Z" fill="#8F9ED4"/>
</g>
<path d="M25.1284 23.9175L24.2583 24.8399C20.0892 20.9205 17.7261 18.531 14.5415 15.0198C14.3978 14.8614 14.6061 14.6435 14.771 14.7797C18.4008 17.7779 20.9257 20.0179 25.1284 23.9175Z" fill="#7686B8"/>
<path d="M26.5043 23.0905L23.5662 26.2056L27.4389 29.8584C28.2991 30.6697 29.6542 30.6301 30.4655 29.7699C31.2769 28.9097 31.2373 27.5546 30.3771 26.7433L26.5043 23.0905Z" fill="url(#paint2_linear_39_296)"/>
<path d="M27.2671 21.1852L21.7085 27.0786C21.1822 27.6365 21.2079 28.5155 21.7659 29.0418C22.3239 29.568 23.2028 29.5423 23.7291 28.9844L29.2877 23.091C29.814 22.533 29.7883 21.6541 29.2303 21.1278C28.6723 20.6015 27.7934 20.6272 27.2671 21.1852Z" fill="url(#paint3_linear_39_296)"/>
<path d="M27.267 21.1853L25.1341 23.4467C24.6078 24.0047 24.6335 24.8837 25.1914 25.4099C25.7494 25.9362 26.6284 25.9105 27.1546 25.3525L29.2876 23.0911C29.8139 22.5331 29.7882 21.6542 29.2302 21.1279C28.6722 20.6017 27.7933 20.6273 27.267 21.1853Z" fill="url(#paint4_linear_39_296)"/>
<defs>
<linearGradient id="paint0_linear_39_296" x1="9.53443" y1="10.0278" x2="24.9088" y2="24.5289" gradientUnits="userSpaceOnUse">
<stop stop-color="#D3DEFD"/>
<stop offset="1" stop-color="#8F9ED4"/>
</linearGradient>
<linearGradient id="paint1_linear_39_296" x1="9.53443" y1="10.0278" x2="24.9088" y2="24.5289" gradientUnits="userSpaceOnUse">
<stop stop-color="#D3DEFD"/>
<stop offset="1" stop-color="#8F9ED4"/>
</linearGradient>
<linearGradient id="paint2_linear_39_296" x1="25.0352" y1="24.648" x2="30.4655" y2="29.7699" gradientUnits="userSpaceOnUse">
<stop stop-color="#F4615A"/>
<stop offset="1" stop-color="#ED4956"/>
</linearGradient>
<linearGradient id="paint3_linear_39_296" x1="24.4878" y1="24.1319" x2="26.5084" y2="26.0377" gradientUnits="userSpaceOnUse">
<stop stop-color="#F7915E"/>
<stop offset="1" stop-color="#F48857"/>
</linearGradient>
<linearGradient id="paint4_linear_39_296" x1="29.458" y1="21.6354" x2="25.2293" y2="25.3294" gradientUnits="userSpaceOnUse">
<stop stop-color="#FFD68D"/>
<stop offset="1" stop-color="#FBA96F"/>
</linearGradient>
</defs>
</svg>
