<?xml version="1.0" encoding="utf-8"?>
<!-- Generator: Adobe Illustrator 25.3.1, SVG Export Plug-In . SVG Version: 6.00 Build 0)  -->
<svg version="1.1" id="Layer_1" xmlns="http://www.w3.org/2000/svg" xmlns:xlink="http://www.w3.org/1999/xlink" x="0px" y="0px"
	 viewBox="0 0 40 40" style="enable-background:new 0 0 40 40;" xml:space="preserve">
<style type="text/css">
	.st0{fill:none;stroke:#FFFFFF;stroke-width:1.3;stroke-linecap:round;stroke-linejoin:round;stroke-miterlimit:10;}
	.st1{fill:#1D76BF;}
	.st2{fill:#348EE8;}
</style>
<g>
	<path class="st0" d="M18.1,24.6c4,0,7.3-3.3,7.3-7.3c0-4-3.3-7.3-7.3-7.3c-4,0-7.3,3.3-7.3,7.3C10.8,21.3,14.1,24.6,18.1,24.6z"/>
	<path class="st0" d="M23.2,22.4l4.3,4.3"/>
	<path class="st1" d="M28.8,27.1c0,0.1-0.1,0.1-0.1,0.2l-0.5,0.5c-0.6,0.6-1.6,0.6-2.2,0l-2-2c-0.6-0.6-0.6-1.6,0-2.2l0.5-0.5
		c0,0,0.1-0.1,0.2-0.1c0.6-0.5,1.5-0.4,2,0.1l2,2C29.2,25.7,29.2,26.5,28.8,27.1z"/>
	<path class="st2" d="M28.8,27.1c-0.6,0.5-1.5,0.5-2.1-0.1l-2-2c-0.6-0.6-0.6-1.5-0.1-2.1c0.6-0.5,1.5-0.4,2,0.1l2,2
		C29.2,25.7,29.2,26.5,28.8,27.1z"/>
</g>
</svg>
