<svg width="40" height="40" viewBox="0 0 40 40" fill="none" xmlns="http://www.w3.org/2000/svg">
<mask id="mask0_101_855" style="mask-type:alpha" maskUnits="userSpaceOnUse" x="7" y="16" width="25" height="16">
<path d="M27.9137 17.2954C25.2184 15.1855 23.9253 16.2404 22.5543 16.7763C21.1833 17.3121 19.5007 17.2954 19.5007 17.2954C19.5007 17.2954 17.8026 17.3121 16.4316 16.7763C15.0606 16.2404 13.7675 15.1855 11.0722 17.2954C8.28349 19.5057 6.89691 23.9599 7.00597 26.8569C7.11503 29.7538 8.11211 31.4618 10.1998 31.9139C12.2874 32.366 14.9359 29.5528 16.1667 28.883C16.6185 28.6318 17.1794 28.4644 17.7247 28.3472C18.9087 28.0793 20.1083 28.0793 21.2768 28.3472C21.8221 28.4644 22.383 28.6486 22.8348 28.883C24.0655 29.5528 26.7141 32.3828 28.8017 31.9139C30.8894 31.4618 31.8709 29.7538 31.9955 26.8569C32.089 23.9599 30.718 19.5057 27.9137 17.2954Z" fill="#808080"/>
</mask>
<g mask="url(#mask0_101_855)">
<path d="M27.9137 17.2954C25.2184 15.1855 23.9253 16.2404 22.5543 16.7763C21.1833 17.3121 19.5007 17.2954 19.5007 17.2954C19.5007 17.2954 17.8026 17.3121 16.4316 16.7763C15.0606 16.2404 13.7675 15.1855 11.0722 17.2954C8.28349 19.5057 6.89691 23.9599 7.00597 26.8569C7.11503 29.7538 8.11211 31.4618 10.1998 31.9139C12.2874 32.366 14.9359 29.5528 16.1667 28.883C16.6185 28.6318 17.1794 28.4644 17.7247 28.3472C18.9087 28.0793 20.1083 28.0793 21.2768 28.3472C21.8221 28.4644 22.383 28.6486 22.8348 28.883C24.0655 29.5528 26.7141 32.3828 28.8017 31.9139C30.8894 31.4618 31.8709 29.7538 31.9955 26.8569C32.089 23.9599 30.718 19.5057 27.9137 17.2954Z" fill="url(#paint0_linear_101_855)"/>
<circle opacity="0.9" cx="14.103" cy="22.966" r="3.80805" fill="#079DFB"/>
<path opacity="0.3" d="M17.1001 17.9157C14.7034 16.3121 12.9247 15.4841 12.335 15.2705C15.4777 15.2705 16.7697 16.528 19.347 16.5721C21.9242 16.6161 22.1445 15.2284 25.0521 15.1623C27.3782 15.1094 29.3989 18.1801 30.1184 19.722C29.4062 18.7308 27.4839 16.7483 25.4926 16.7483C23.0035 16.7483 20.0959 19.9203 17.1001 17.9157Z" fill="#BAE4FF"/>
<circle opacity="0.9" cx="25.0856" cy="22.966" r="3.80805" fill="#079DFB"/>
<path d="M15.899 22.0438H14.7826V20.8805C14.7826 20.4253 14.4307 20.0586 13.9939 20.0586C13.5571 20.0586 13.2052 20.4253 13.2052 20.8805V22.0438H12.0888C11.6519 22.0438 11.3 22.4105 11.3 22.8657C11.3 23.3209 11.6519 23.6876 12.0888 23.6876H13.2052V24.8509C13.2052 25.3061 13.5571 25.6728 13.9939 25.6728C14.4307 25.6728 14.7826 25.3061 14.7826 24.8509V23.6876H15.899C16.3359 23.6876 16.6878 23.3209 16.6878 22.8657C16.6878 22.4105 16.3359 22.0438 15.899 22.0438Z" fill="url(#paint1_linear_101_855)"/>
<path d="M23.1289 21.9453C22.6432 21.9453 22.2446 22.3606 22.2446 22.8667C22.2446 23.3729 22.6432 23.7882 23.1289 23.7882C23.6146 23.7882 24.0131 23.3729 24.0131 22.8667C24.0131 22.3606 23.6146 21.9453 23.1289 21.9453Z" fill="url(#paint2_linear_101_855)"/>
<path d="M26.8159 21.9453C26.3302 21.9453 25.9316 22.3606 25.9316 22.8667C25.9316 23.3729 26.3302 23.7882 26.8159 23.7882C27.3016 23.7882 27.7001 23.3729 27.7001 22.8667C27.7001 22.3606 27.3016 21.9453 26.8159 21.9453Z" fill="url(#paint3_linear_101_855)"/>
<path d="M24.9726 20.0247C24.4869 20.0247 24.0884 20.44 24.0884 20.9461C24.0884 21.4522 24.4869 21.8675 24.9726 21.8675C25.4583 21.8675 25.8569 21.4522 25.8569 20.9461C25.8569 20.44 25.4583 20.0247 24.9726 20.0247Z" fill="url(#paint4_linear_101_855)"/>
<path d="M24.9726 23.853C24.4869 23.853 24.0884 24.2683 24.0884 24.7745C24.0884 25.2806 24.4869 25.6959 24.9726 25.6959C25.4583 25.6959 25.8569 25.2806 25.8569 24.7745C25.8569 24.2683 25.4583 23.853 24.9726 23.853Z" fill="url(#paint5_linear_101_855)"/>
<path opacity="0.9" d="M9.74718 27.4452C7.48015 25.1782 7.88352 22.3903 8.36859 21.2798L5.77563 24.0571L7.04482 32.5189H11.9546L16.4421 28.8396C15.1551 29.3194 12.0142 29.7122 9.74718 27.4452Z" fill="#079DFB"/>
<path opacity="0.9" d="M29.2994 27.4452C31.5665 25.1782 31.1631 22.3903 30.678 21.2798L33.271 24.0571L32.0018 32.5189H27.092L22.6045 28.8396C23.8916 29.3194 27.0324 29.7122 29.2994 27.4452Z" fill="#079DFB"/>
</g>
<circle cx="25" cy="16" r="8" fill="#DBE3FF"/>
<path d="M21.5 16.0002H28.5" stroke="#8A4FFF" stroke-width="1.5" stroke-linecap="round" stroke-linejoin="round"/>
<path d="M25.5828 13.0835L28.4993 16.0003L25.5828 18.9168" stroke="#8A4FFF" stroke-width="1.5" stroke-linecap="round" stroke-linejoin="round"/>
<defs>
<linearGradient id="paint0_linear_101_855" x1="19.5" y1="16.0339" x2="19.5" y2="31.966" gradientUnits="userSpaceOnUse">
<stop offset="0.109375" stop-color="#22CDFE"/>
<stop offset="1" stop-color="#11B5FD"/>
</linearGradient>
<linearGradient id="paint1_linear_101_855" x1="13.9939" y1="20.0586" x2="13.9939" y2="25.6728" gradientUnits="userSpaceOnUse">
<stop stop-color="#262653"/>
<stop offset="1" stop-color="#3E3E68"/>
</linearGradient>
<linearGradient id="paint2_linear_101_855" x1="23.1289" y1="21.9453" x2="23.1289" y2="23.7882" gradientUnits="userSpaceOnUse">
<stop stop-color="#262653"/>
<stop offset="1" stop-color="#3E3E68"/>
</linearGradient>
<linearGradient id="paint3_linear_101_855" x1="26.8159" y1="21.9453" x2="26.8159" y2="23.7882" gradientUnits="userSpaceOnUse">
<stop stop-color="#262653"/>
<stop offset="1" stop-color="#3E3E68"/>
</linearGradient>
<linearGradient id="paint4_linear_101_855" x1="24.9726" y1="20.0247" x2="24.9726" y2="21.8675" gradientUnits="userSpaceOnUse">
<stop stop-color="#262653"/>
<stop offset="1" stop-color="#3E3E68"/>
</linearGradient>
<linearGradient id="paint5_linear_101_855" x1="24.9726" y1="23.853" x2="24.9726" y2="25.6959" gradientUnits="userSpaceOnUse">
<stop stop-color="#262653"/>
<stop offset="1" stop-color="#3E3E68"/>
</linearGradient>
</defs>
</svg>
