<svg width="40" height="40" viewBox="0 0 40 40" fill="none" xmlns="http://www.w3.org/2000/svg">
<path d="M11.5278 20.6958V17.2176C11.5278 12.5387 15.3209 8.74561 19.9998 8.74561V8.74561C24.6788 8.74561 28.4719 12.5387 28.4719 17.2176V20.6958" stroke="#9970EF" stroke-width="1.8"/>
<rect x="9" y="16.8579" width="22" height="12" rx="6" fill="#8393CE"/>
<rect x="9" y="18.8579" width="22" height="12" rx="6" fill="#464772"/>
<path d="M10.7085 24.8578C10.7085 22.3785 12.7183 20.3687 15.1976 20.3687H24.8021C27.2814 20.3687 29.2912 22.3785 29.2912 24.8578V24.8578C29.2912 27.337 27.2814 29.3469 24.8021 29.3469H15.1976C12.7183 29.3469 10.7085 27.337 10.7085 24.8578V24.8578Z" fill="url(#paint0_linear_39_350)"/>
<path d="M18.4933 27.1734L17.5681 29.5762H22.4313L21.3841 27.1217C21.1388 26.5468 20.5741 26.1738 19.9492 26.1738C19.3038 26.1738 18.7251 26.5711 18.4933 27.1734Z" fill="#464772"/>
<defs>
<linearGradient id="paint0_linear_39_350" x1="19.9998" y1="14.5459" x2="19.9998" y2="30.1411" gradientUnits="userSpaceOnUse">
<stop stop-color="#9B70F4"/>
<stop offset="1" stop-color="#B38FFF"/>
</linearGradient>
</defs>
</svg>
