<svg width="13" height="14" viewBox="0 0 13 14" fill="none" xmlns="http://www.w3.org/2000/svg">
<path d="M6.04332 1.02453C6.2195 0.629284 6.7805 0.629285 6.95668 1.02453L8.45453 4.38481C8.5272 4.54783 8.68124 4.65975 8.85874 4.67848L12.5174 5.06464C12.9478 5.11006 13.1211 5.64361 12.7997 5.9333L10.0667 8.39622C9.93412 8.51571 9.87528 8.6968 9.91231 8.87139L10.6757 12.4703C10.7654 12.8936 10.3116 13.2234 9.93672 13.0072L6.74981 11.1691C6.59521 11.0799 6.40479 11.0799 6.25019 11.1691L3.06328 13.0072C2.68843 13.2234 2.23456 12.8936 2.32435 12.4703L3.08769 8.87139C3.12472 8.6968 3.06588 8.51571 2.9333 8.39622L0.200338 5.9333C-0.121119 5.64361 0.0522424 5.11006 0.482584 5.06464L4.14126 4.67848C4.31876 4.65975 4.4728 4.54783 4.54547 4.38481L6.04332 1.02453Z" fill="white" fill-opacity="0.3"/>
</svg>
