<svg width="40" height="40" viewBox="0 0 40 40" fill="none" xmlns="http://www.w3.org/2000/svg">
<mask id="mask0_39_358" style="mask-type:alpha" maskUnits="userSpaceOnUse" x="9" y="8" width="22" height="24">
<path d="M28.5198 16.1174C28.5198 15.3398 27.6714 11.4165 24.5185 9.71334C22.2205 8.47194 18.7823 7.95133 15.3471 9.27735C10.8625 11.0084 9.25016 15.544 9.86033 18.2974C10.4705 21.0508 13.4308 23.1561 13.2468 26.0703C13.1117 28.2091 12.2605 30.5825 11.7216 31.5H21.4537L22.8572 28.2356C23.9404 28.6946 26.352 29.5938 27.3334 29.5183C28.3149 29.4429 28.2711 27.6359 28.1265 26.7418C28.3769 26.6545 28.8925 26.3979 28.951 26.0703C29.0096 25.7426 28.6879 25.4949 28.5198 25.412C28.7269 25.4071 29.1588 25.3096 29.229 24.9585C29.2992 24.6075 28.7854 23.7685 28.5198 23.393C29.1011 23.1536 30.2639 22.579 30.2639 22.196C30.2639 21.813 28.6452 19.4373 27.8358 18.2974C27.8358 18.2974 28.5198 16.8949 28.5198 16.1174Z" fill="#D3DEFE"/>
</mask>
<g mask="url(#mask0_39_358)">
<path d="M28.5198 16.1174C28.5198 15.3398 27.6714 11.4165 24.5185 9.71333C22.2205 8.47193 18.7823 7.95132 15.3471 9.27735C10.8625 11.0084 9.25016 15.544 9.86033 18.2974C10.4705 21.0507 13.4308 23.156 13.2468 26.0703C13.1117 28.2091 12.2605 30.5825 11.7216 31.5H21.4537L22.8572 28.2356C23.9404 28.6946 26.352 29.5938 27.3334 29.5183C28.3149 29.4428 28.2711 27.6359 28.1265 26.7418C28.3769 26.6545 28.6647 26.2922 28.7232 25.9645C28.7817 25.6368 28.4601 25.3891 28.2919 25.3062C28.4991 25.3014 28.9309 25.2038 29.0012 24.8528C29.0714 24.5017 28.5198 23.393 28.5198 23.393C29.1011 23.1536 30.2639 22.579 30.2639 22.196C30.2639 21.813 28.6452 19.4373 27.8358 18.2974C27.8358 18.2974 28.5198 16.8949 28.5198 16.1174Z" fill="url(#paint0_linear_39_358)"/>
<path d="M28.1323 22.6363L28.5663 23.4785C30.0344 23.0039 30.4386 22.4338 30.3307 22.2464C30.0964 21.8394 28.7676 22.3695 28.1323 22.6363Z" fill="#E08C64"/>
<path d="M18.1138 25.8066C18.1138 25.8066 20.1578 27.0439 22.9883 28.2968L22.111 30.4133L18.1138 25.8066Z" fill="#E08C64"/>
</g>
<mask id="mask1_39_358" style="mask-type:alpha" maskUnits="userSpaceOnUse" x="11" y="10" width="16" height="11">
<path d="M18.3233 19.042C17.3665 20.1091 15.7705 21.2542 13.9912 20.7038C11.9154 20.0617 11.1118 18.1882 11.5533 15.804C12.1052 12.8237 14.8648 10.9104 17.6243 10.5425C20.3839 10.1746 25.204 10.6899 26.4917 14.5165C27.6556 17.9749 23.769 18.0853 22.1868 17.9749C20.6047 17.8645 19.2801 17.9749 18.3233 19.042Z" fill="url(#paint1_linear_39_358)"/>
</mask>
<g mask="url(#mask1_39_358)">
<path d="M18.3233 19.042C17.3665 20.1091 15.7705 21.2542 13.9912 20.7038C11.9154 20.0617 11.1118 18.1882 11.5533 15.804C12.1052 12.8237 14.8648 10.9104 17.6243 10.5425C20.3839 10.1746 25.204 10.6899 26.4917 14.5165C27.6556 17.9749 23.769 18.0853 22.1868 17.9749C20.6047 17.8645 19.2801 17.9749 18.3233 19.042Z" fill="#F05358"/>
<path d="M13.2275 12.4167V13.3156C13.2275 13.8679 13.6753 14.3156 14.2275 14.3156H14.2845" stroke="#BE343B" stroke-width="0.5" stroke-linecap="round" stroke-linejoin="round"/>
<path d="M19.2854 14.3892V15.288C19.2854 15.8403 19.7331 16.288 20.2854 16.288H20.3423" stroke="#BE343B" stroke-width="0.5" stroke-linecap="round" stroke-linejoin="round"/>
<path d="M14.0815 15.7073V16.6061C14.0815 17.1584 14.5293 17.6061 15.0815 17.6061H15.1385" stroke="#BE343B" stroke-width="0.5" stroke-linecap="round" stroke-linejoin="round"/>
<path d="M15.9482 20.7717V19.8729C15.9482 19.3206 15.5005 18.8729 14.9482 18.8729H14.8913" stroke="#BE343B" stroke-width="0.5" stroke-linecap="round" stroke-linejoin="round"/>
<path d="M25.4951 18.3118V17.4129C25.4951 16.8606 25.0474 16.4129 24.4951 16.4129H24.4382" stroke="#BE343B" stroke-width="0.5" stroke-linecap="round" stroke-linejoin="round"/>
<path d="M26.3513 14.1775H24.8352" stroke="#BE343B" stroke-width="0.5" stroke-linecap="round" stroke-linejoin="round"/>
<path d="M16.3992 14.5593H16.8411C17.353 14.5593 17.768 14.9743 17.768 15.4862V15.4862C17.768 15.9981 17.353 16.4131 16.8411 16.4131H16.3992" stroke="#BE343B" stroke-width="0.5" stroke-linecap="round" stroke-linejoin="round"/>
<path d="M21.9458 15.3384H22.3302C22.7754 15.3384 23.1364 15.6993 23.1364 16.1446V16.1446C23.1364 16.5898 22.7754 16.9507 22.3302 16.9507H21.9458" stroke="#BE343B" stroke-width="0.5" stroke-linecap="round" stroke-linejoin="round"/>
<path d="M19.2144 13.1289L19.2144 12.7445C19.2144 12.2993 19.5753 11.9383 20.0205 11.9383V11.9383C20.4658 11.9383 20.8267 12.2993 20.8267 12.7445L20.8267 13.1289" stroke="#BE343B" stroke-width="0.5" stroke-linecap="round" stroke-linejoin="round"/>
<path d="M12.4929 18.1868V17.2879C12.4929 16.7356 12.0452 16.2879 11.4929 16.2879H11.436" stroke="#BE343B" stroke-width="0.5" stroke-linecap="round" stroke-linejoin="round"/>
<path d="M17.6121 10.5178V11.4167C17.6121 11.969 17.1643 12.4167 16.6121 12.4167H16.5551" stroke="#BE343B" stroke-width="0.5" stroke-linecap="round" stroke-linejoin="round"/>
<path d="M23.4856 11.23V12.1288C23.4856 12.6811 23.0379 13.1288 22.4856 13.1288H22.4287" stroke="#BE343B" stroke-width="0.5" stroke-linecap="round" stroke-linejoin="round"/>
</g>
<defs>
<linearGradient id="paint0_linear_39_358" x1="20.0001" y1="8.5" x2="20.0001" y2="36.1545" gradientUnits="userSpaceOnUse">
<stop stop-color="#FFD2B9"/>
<stop offset="1" stop-color="#FCAC7F"/>
</linearGradient>
<linearGradient id="paint1_linear_39_358" x1="19.071" y1="10.4434" x2="19.071" y2="20.8465" gradientUnits="userSpaceOnUse">
<stop stop-color="#FFAE5F"/>
<stop offset="1" stop-color="#FFC86D"/>
</linearGradient>
</defs>
</svg>
