<?xml version="1.0" encoding="utf-8"?>
<!-- Generator: Adobe Illustrator 25.3.1, SVG Export Plug-In . SVG Version: 6.00 Build 0)  -->
<svg version="1.1" id="Layer_1" xmlns="http://www.w3.org/2000/svg" xmlns:xlink="http://www.w3.org/1999/xlink" x="0px" y="0px"
	 viewBox="0 0 40 40" style="enable-background:new 0 0 40 40;" xml:space="preserve">
<style type="text/css">
	.st0{fill:#56A5ED;}
	.st1{fill:#4587E5;}
	.st2{opacity:0.25;fill:#FFFFFF;enable-background:new    ;}
</style>
<path class="st0" d="M21.8,11.2c-2.1,0.5-3.7,2.4-3.7,4.7c0,2.3,1.6,4.2,3.7,4.7c2.1-0.5,3.7-2.4,3.7-4.7
	C25.5,13.6,23.9,11.7,21.8,11.2z M25.3,22.2C24.9,22,24.5,22,24,22h-0.6c-0.5,0.2-1,0.4-1.6,0.5c-0.4,0.1-0.8,0.1-1.2,0.1
	c-0.8,0-1.6-0.2-2.4-0.4c-2.2,0.6-3.8,2.6-3.8,4.9v1.6c0,1,0.8,1.8,1.8,1.8h11.1c1,0,1.8-0.8,1.8-1.8v-1.6
	C29.1,24.7,27.5,22.7,25.3,22.2z"/>
<path class="st1" d="M21.8,20.6c-0.4,0.1-0.8,0.2-1.2,0.2c-2.7,0-4.9-2.2-4.9-4.9s2.2-4.9,4.9-4.9c0.4,0,0.8,0,1.2,0.1
	c-2.1,0.5-3.7,2.4-3.7,4.7C18.1,18.2,19.6,20.1,21.8,20.6z"/>
<path class="st1" d="M16.2,30.5h-2.3c-1,0-1.8-0.8-1.8-1.8v-1.6c0-2.8,2.3-5.1,5.1-5.1h0.6c0.1,0.1,0.3,0.1,0.4,0.2
	c-2.2,0.6-3.8,2.6-3.8,4.9v1.6C14.4,29.7,15.2,30.5,16.2,30.5z"/>
<ellipse transform="matrix(0.9379 -0.3469 0.3469 0.9379 -3.6274 9.1113)" class="st2" cx="23.6" cy="14.7" rx="1.1" ry="1.5"/>
<ellipse transform="matrix(0.7211 -0.6928 0.6928 0.7211 -10.0858 25.5258)" class="st2" cx="26.7" cy="25.3" rx="1.1" ry="1.5"/>
</svg>
